<?xml version="1.0" encoding="UTF-8"?>
<svg xmlns="http://www.w3.org/2000/svg" xmlns:xlink="http://www.w3.org/1999/xlink" viewBox="0 0 192 192" width="192px" height="192px">
<g id="surface132158929">
<path style=" stroke:none;fill-rule:nonzero;fill:rgb(80.000001%,80.000001%,80.000001%);fill-opacity:1;" d="M 136.199219 114.601562 C 135.039062 113.625 135.226562 111.300781 137.136719 111.300781 L 141.710938 111.300781 C 141.675781 110.289062 140.960938 109.875 139.351562 109.726562 C 137.324219 109.539062 135.261719 109.761719 133.238281 109.800781 C 125.4375 109.835938 117.675781 108.5625 109.875 108.9375 L 109.875 114.300781 L 118.351562 114.300781 C 119.324219 114.300781 120.335938 114.9375 120.375 116.023438 C 120.449219 122.101562 122.511719 127.988281 122.625 134.023438 C 122.625 134.851562 122.210938 135.414062 121.6875 135.710938 C 121.988281 136.613281 121.726562 137.699219 120.636719 138.1875 C 107.476562 143.960938 92.851562 139.988281 81.148438 132.636719 C 75.039062 128.8125 69.9375 124.460938 66.226562 118.238281 C 62.960938 112.726562 60.75 106.6875 59.511719 100.425781 C 57.148438 88.574219 58.011719 74.699219 65.699219 64.835938 C 69.414062 60.074219 74.664062 56.585938 80.550781 55.085938 C 84.976562 53.960938 89.585938 53.324219 94.164062 53.476562 C 96.976562 53.550781 99.75 53.773438 102.523438 54.226562 C 104.925781 54.601562 107.363281 54.976562 109.539062 56.175781 C 113.175781 58.164062 115.386719 61.164062 117.488281 64.613281 C 118.761719 66.675781 121.085938 71.585938 124.238281 70.539062 C 127.238281 69.5625 129.488281 66.488281 131.136719 63.9375 C 132.898438 61.199219 134.4375 58.3125 135.601562 55.3125 C 135.636719 55.199219 135.675781 55.125 135.710938 55.050781 C 135.449219 54.75 135.113281 54.449219 134.773438 54.1875 C 133.574219 53.25 132.148438 52.539062 130.761719 51.898438 C 127.125 50.25 123.261719 49.085938 119.398438 48.039062 C 111.976562 46.085938 104.324219 44.511719 96.601562 44.398438 C 77.773438 44.136719 58.875 50.960938 47.851562 66.898438 C 37.761719 81.523438 33.789062 102.898438 43.761719 118.574219 C 53.101562 133.273438 70.914062 141.789062 87.675781 144.601562 C 96.863281 146.136719 106.539062 146.773438 115.6875 144.675781 C 124.273438 142.6875 131.851562 138.523438 137.738281 132.039062 C 137.625 131.8125 137.585938 131.585938 137.585938 131.289062 C 137.625 125.699219 136.425781 120.1875 136.199219 114.601562 Z M 136.199219 114.601562 "/>
<path style=" stroke:none;fill-rule:nonzero;fill:rgb(10.196079%,73.725492%,61.176473%);fill-opacity:1;" d="M 177.824219 60.636719 C 171.789062 43.164062 160.3125 27.976562 143.585938 19.539062 C 124.5 9.898438 101.960938 9 81.1875 12.300781 C 62.511719 15.300781 42.824219 22.050781 28.835938 35.25 C 21.488281 42.1875 15.824219 50.585938 12.824219 60.300781 C 9.824219 70.050781 8.925781 80.210938 8.289062 90.335938 C 8.25 90.75 8.136719 91.085938 7.914062 91.351562 C 7.914062 91.425781 7.949219 91.539062 7.949219 91.648438 C 7.949219 111.488281 7.539062 132.261719 19.238281 149.363281 C 28.726562 163.273438 43.425781 172.425781 59.4375 177 C 92.4375 186.449219 132.261719 180.601562 158.773438 157.949219 C 186.5625 134.210938 189.113281 93.335938 177.824219 60.636719 Z M 145.125 113.511719 C 144.898438 114.261719 144.300781 115.011719 143.4375 115.011719 L 139.988281 115.011719 C 140.25 120.148438 141.261719 125.210938 141.414062 130.351562 C 142.238281 130.914062 142.6875 132.113281 141.863281 133.125 C 131.925781 145.085938 117 150 101.738281 149.699219 C 87.300781 149.398438 72.636719 145.914062 60.113281 138.5625 C 52.648438 134.175781 45.675781 128.476562 40.988281 121.085938 C 36.1875 113.550781 33.976562 104.773438 34.386719 95.886719 C 35.25 77.699219 44.625 59.550781 60.375 49.914062 C 75.074219 40.875 93.261719 38.886719 110.023438 42.074219 C 116.289062 43.273438 122.550781 44.773438 128.550781 46.949219 C 132.449219 48.375 139.875 50.886719 140.0625 55.988281 C 140.101562 57.039062 139.425781 57.675781 138.601562 57.898438 C 137.511719 60.601562 136.125 63.1875 134.511719 65.625 C 132.675781 68.4375 130.460938 71.550781 127.460938 73.199219 C 124.726562 74.699219 121.613281 74.925781 119.101562 72.824219 C 116.0625 70.273438 114.5625 66.449219 112.238281 63.335938 C 110.960938 61.613281 109.351562 60.226562 107.398438 59.289062 C 105.113281 58.238281 102.414062 57.9375 99.9375 57.636719 C 94.574219 57 89.476562 57.226562 84.148438 58.125 C 78.226562 59.136719 72.789062 62.023438 69 66.75 C 65.363281 71.324219 63.375 77.023438 62.625 82.761719 C 60.976562 94.914062 63.898438 108.414062 70.988281 118.539062 C 75.5625 125.0625 82.386719 129.5625 89.550781 132.898438 C 98.925781 137.25 109.3125 138.898438 119.0625 134.8125 C 119.023438 134.664062 118.988281 134.476562 118.988281 134.289062 C 118.914062 128.8125 117.1875 123.488281 116.8125 118.011719 L 108.261719 118.011719 C 107.289062 118.011719 106.238281 117.375 106.238281 116.289062 L 106.238281 107.289062 C 106.238281 106.273438 106.875 105.375 107.960938 105.261719 C 117.148438 104.511719 126.335938 106.273438 135.523438 105.9375 C 137.886719 105.863281 140.960938 105.601562 143.0625 106.875 C 145.5 108.335938 145.949219 110.851562 145.125 113.511719 Z M 145.125 113.511719 "/>
<path style=" stroke:none;fill-rule:nonzero;fill:rgb(0%,0%,0%);fill-opacity:1;" d="M 182.925781 63.261719 C 177.601562 45.675781 167.585938 30.148438 152.175781 19.875 C 134.8125 8.25 112.6875 5.4375 92.25 6.9375 C 72.863281 8.363281 53.023438 13.648438 36.523438 24.1875 C 28.425781 29.363281 21.1875 36.148438 15.898438 44.210938 C 10.3125 52.726562 7.460938 62.511719 5.925781 72.488281 C 5.0625 78.148438 4.648438 83.851562 4.273438 89.585938 C 4.238281 89.925781 4.3125 90.261719 4.425781 90.5625 C 4.085938 90.898438 3.863281 91.386719 3.863281 91.988281 C 3.863281 103.273438 3.636719 114.636719 5.585938 125.8125 C 7.386719 135.976562 11.289062 145.648438 17.4375 153.976562 C 28.386719 168.789062 45 177.710938 62.585938 182.101562 C 95.925781 190.425781 135.414062 183.488281 161.773438 160.6875 C 189.5625 136.648438 193.011719 96.601562 182.925781 63.261719 Z M 158.773438 157.949219 C 132.226562 180.601562 92.4375 186.449219 59.4375 177 C 43.425781 172.425781 28.726562 163.273438 19.238281 149.363281 C 7.574219 132.261719 7.949219 111.488281 7.949219 91.648438 C 7.949219 91.539062 7.949219 91.460938 7.914062 91.351562 C 8.101562 91.085938 8.25 90.75 8.289062 90.335938 C 8.925781 80.210938 9.824219 70.050781 12.824219 60.300781 C 15.789062 50.585938 21.488281 42.1875 28.835938 35.25 C 42.824219 22.050781 62.511719 15.300781 81.1875 12.335938 C 102 9.039062 124.5 9.9375 143.585938 19.574219 C 160.3125 28.011719 171.75 43.238281 177.824219 60.675781 C 189.113281 93.335938 186.5625 134.210938 158.773438 157.949219 Z M 158.773438 157.949219 "/>
<path style=" stroke:none;fill-rule:nonzero;fill:rgb(0%,0%,0%);fill-opacity:1;" d="M 143.023438 106.835938 C 140.886719 105.5625 137.851562 105.824219 135.488281 105.898438 C 126.300781 106.273438 117.113281 104.476562 107.925781 105.226562 C 106.835938 105.300781 106.199219 106.199219 106.199219 107.25 L 106.199219 116.25 C 106.199219 117.335938 107.25 117.976562 108.226562 117.976562 L 116.773438 117.976562 C 117.148438 123.449219 118.875 128.773438 118.949219 134.25 C 118.949219 134.4375 118.988281 134.625 119.023438 134.773438 C 109.273438 138.863281 98.886719 137.210938 89.511719 132.863281 C 82.351562 129.523438 75.523438 125.023438 70.949219 118.5 C 63.898438 108.414062 60.976562 94.875 62.585938 82.726562 C 63.375 76.988281 65.324219 71.289062 68.960938 66.710938 C 72.75 61.988281 78.1875 59.101562 84.113281 58.085938 C 89.4375 57.1875 94.539062 56.960938 99.898438 57.601562 C 102.375 57.898438 105.074219 58.199219 107.363281 59.25 C 109.3125 60.148438 110.925781 61.574219 112.199219 63.300781 C 114.523438 66.414062 116.023438 70.238281 119.0625 72.789062 C 121.574219 74.886719 124.6875 74.664062 127.425781 73.164062 C 130.425781 71.511719 132.636719 68.398438 134.476562 65.585938 C 136.085938 63.1875 137.476562 60.5625 138.5625 57.863281 C 139.351562 57.675781 140.0625 57 140.023438 55.949219 C 139.835938 50.8125 132.414062 48.300781 128.511719 46.914062 C 122.511719 44.738281 116.25 43.199219 109.988281 42.039062 C 93.226562 38.851562 75.039062 40.835938 60.335938 49.875 C 44.585938 59.550781 35.210938 77.699219 34.386719 95.886719 C 33.976562 104.773438 36.226562 113.550781 40.988281 121.085938 C 45.675781 128.476562 52.613281 134.175781 60.113281 138.5625 C 72.636719 145.914062 87.261719 149.398438 101.738281 149.699219 C 116.960938 150 131.925781 145.125 141.863281 133.125 C 142.6875 132.113281 142.238281 130.914062 141.414062 130.351562 C 141.300781 125.210938 140.25 120.148438 139.988281 115.011719 L 143.4375 115.011719 C 144.335938 115.011719 144.898438 114.261719 145.125 113.511719 C 145.949219 110.851562 145.5 108.335938 143.023438 106.835938 Z M 137.136719 111.261719 C 135.226562 111.261719 135 113.585938 136.199219 114.5625 C 136.425781 120.148438 137.625 125.664062 137.664062 131.25 C 137.664062 131.550781 137.738281 131.773438 137.8125 132 C 131.925781 138.488281 124.351562 142.648438 115.761719 144.636719 C 106.613281 146.738281 96.9375 146.101562 87.75 144.5625 C 70.988281 141.75 53.175781 133.238281 43.835938 118.539062 C 33.863281 102.863281 37.835938 81.488281 47.925781 66.863281 C 58.949219 50.925781 77.851562 44.0625 96.675781 44.363281 C 104.398438 44.476562 112.011719 46.050781 119.476562 48 C 123.335938 49.011719 127.164062 50.210938 130.835938 51.863281 C 132.226562 52.5 133.613281 53.210938 134.851562 54.148438 C 135.1875 54.414062 135.523438 54.710938 135.789062 55.011719 C 135.75 55.085938 135.710938 55.199219 135.675781 55.273438 C 134.511719 58.3125 132.976562 61.199219 131.210938 63.898438 C 129.5625 66.449219 127.3125 69.488281 124.3125 70.5 C 121.164062 71.550781 118.835938 66.636719 117.5625 64.574219 C 115.460938 61.125 113.25 58.125 109.613281 56.136719 C 107.4375 54.9375 105.039062 54.601562 102.601562 54.1875 C 99.824219 53.738281 97.050781 53.511719 94.238281 53.4375 C 89.664062 53.289062 85.050781 53.925781 80.625 55.050781 C 74.738281 56.511719 69.488281 60 65.773438 64.800781 C 58.085938 74.664062 57.226562 88.574219 59.585938 100.386719 C 60.824219 106.648438 63.039062 112.6875 66.300781 118.199219 C 70.011719 124.425781 75.113281 128.773438 81.226562 132.601562 C 92.925781 139.914062 107.550781 143.886719 120.710938 138.148438 C 121.800781 137.664062 122.0625 136.574219 121.761719 135.675781 C 122.324219 135.375 122.738281 134.8125 122.699219 133.988281 C 122.585938 127.949219 120.523438 122.0625 120.449219 115.988281 C 120.449219 114.898438 119.398438 114.261719 118.425781 114.261719 L 109.949219 114.261719 L 109.949219 108.898438 C 117.75 108.523438 125.511719 109.800781 133.3125 109.761719 C 135.335938 109.761719 137.398438 109.5 139.425781 109.6875 C 141 109.835938 141.710938 110.25 141.789062 111.261719 Z M 137.136719 111.261719 "/>
</g>
</svg>
